<svg width="20" height="20" viewBox="0 0 20 20" fill="none" xmlns="http://www.w3.org/2000/svg">
<path d="M18.3333 1.66663H6.66667V5.95829C5.56053 6.18438 4.53629 6.70588 3.70275 7.46737C2.86922 8.22887 2.25752 9.20192 1.93263 10.2832C1.60775 11.3644 1.58181 12.5135 1.85758 13.6083C2.13335 14.7031 2.70052 15.7028 3.49885 16.5011C4.29718 17.2994 5.29685 17.8666 6.39166 18.1424C7.48647 18.4181 8.63553 18.3922 9.71678 18.0673C10.798 17.7424 11.7711 17.1307 12.5326 16.2972C13.2941 15.4637 13.8156 14.4394 14.0417 13.3333H18.3333V1.66663ZM14.1533 11.6666C14.0525 10.1562 13.407 8.73373 12.3366 7.66334C11.2662 6.59295 9.84374 5.94741 8.33333 5.84663V3.33329H16.6667V11.6666H14.1533Z" fill="#8C8480"/>
</svg>
