<svg width="20" height="20" viewBox="0 0 20 20" fill="none" xmlns="http://www.w3.org/2000/svg">
<path fill-rule="evenodd" clip-rule="evenodd" d="M9.23666 2.70332C9.66996 2.56427 10.133 2.54611 10.5758 2.65082L10.7633 2.70332L16.2083 4.44999C16.3667 4.50249 16.5092 4.60082 16.6133 4.73832L16.6717 4.82582L18.9633 8.78165C19.0213 8.88158 19.0579 8.99246 19.0707 9.10726C19.0835 9.22207 19.0723 9.33829 19.0379 9.44854C19.0034 9.5588 18.9464 9.66068 18.8704 9.74772C18.7945 9.83476 18.7012 9.90506 18.5967 9.95415L18.4967 9.99332L16.7875 10.5417V14.15C16.7874 14.4799 16.6894 14.8023 16.5058 15.0765C16.3223 15.3506 16.0616 15.5641 15.7567 15.69L15.63 15.7367L10.7633 17.2967C10.33 17.4357 9.86701 17.4539 9.42416 17.3492L9.23666 17.2975L4.37 15.7367C4.0558 15.6358 3.77863 15.4439 3.57361 15.1853C3.36858 14.9267 3.24493 14.6131 3.21833 14.2842L3.2125 14.1492V10.5417L1.50333 9.99332C1.39342 9.95804 1.29203 9.90032 1.20559 9.8238C1.11916 9.74728 1.04957 9.65364 1.00123 9.54881C0.952885 9.44398 0.926851 9.33025 0.924775 9.21483C0.922699 9.09941 0.944626 8.98482 0.989166 8.87832L1.03667 8.78165L3.32833 4.82582C3.41423 4.67761 3.54372 4.55947 3.69917 4.48749L3.79083 4.44999L9.23666 2.70332ZM10.8333 10.2542V15.5242L15.1208 14.1492V11.0767L12.5458 11.9025C12.3807 11.9555 12.2031 11.9556 12.0379 11.9028C11.8727 11.8501 11.7281 11.7472 11.6242 11.6083L11.5708 11.5267L10.8333 10.2542ZM9.16667 10.2542L8.42916 11.5267C8.33387 11.6911 8.18523 11.818 8.00789 11.8864C7.83055 11.9547 7.63518 11.9604 7.45416 11.9025L4.87917 11.0767V14.1492L9.16667 15.525V10.2542ZM4.43333 6.24165L2.9975 8.72249L7.32333 10.1108L8.76083 7.62999L4.43333 6.24165ZM15.5667 6.24165L11.2392 7.62999L12.6758 10.1108L17.0025 8.72249L15.5667 6.24165ZM10.2542 4.28999C10.1222 4.24785 9.98191 4.23926 9.84583 4.26499L9.74583 4.28999L6.775 5.24332L10 6.27749L13.225 5.24332L10.2542 4.28999Z" fill="#8C8480"/>
</svg>
