<svg width="20" height="20" viewBox="0 0 20 20" fill="none" xmlns="http://www.w3.org/2000/svg">
<path fill-rule="evenodd" clip-rule="evenodd" d="M4.16667 2.5C3.72464 2.5 3.30072 2.67559 2.98816 2.98816C2.67559 3.30072 2.5 3.72464 2.5 4.16667V15.8333C2.5 16.2754 2.67559 16.6993 2.98816 17.0118C3.30072 17.3244 3.72464 17.5 4.16667 17.5H11.6667C12.1342 17.5 12.5567 17.3075 12.8592 16.9975L13.3483 17.1283C13.5598 17.185 13.7803 17.1996 13.9973 17.171C14.2144 17.1425 14.4237 17.0715 14.6132 16.9621C14.8028 16.8527 14.969 16.707 15.1023 16.5333C15.2356 16.3596 15.3333 16.1614 15.39 15.95L17.5458 7.9C17.6601 7.47311 17.6002 7.01832 17.3792 6.63561C17.1583 6.2529 16.7943 5.97361 16.3675 5.85917L13.3333 5.04583V4.16667C13.3333 3.72464 13.1577 3.30072 12.8452 2.98816C12.5326 2.67559 12.1087 2.5 11.6667 2.5H4.16667ZM13.3333 15.3992V6.77167L15.9367 7.46917L13.78 15.5192L13.3333 15.3992Z" fill="#8C8480"/>
</svg>
