<svg width="20" height="20" viewBox="0 0 20 20" fill="none" xmlns="http://www.w3.org/2000/svg">
<path d="M8.33984 5.99744C8.65179 5.84488 9.00518 5.79851 9.3457 5.86658L11.9102 6.38025L12.0605 6.41833C12.2094 6.46379 12.3508 6.53146 12.4805 6.61853C12.6532 6.73449 12.8018 6.88278 12.917 7.05603L13.7383 8.28748L15.7783 7.77771L16.0205 7.71716L16.0811 7.95935L16.4033 9.2533L16.4639 9.49548L14.0107 10.1088H14.0098C13.6934 10.1866 13.3605 10.1656 13.0566 10.0482C12.7528 9.93081 12.4924 9.72275 12.3105 9.45251L12.3096 9.45154L12.251 9.36267L11.4551 10.6898L13.1338 11.0248H13.1348C13.408 11.0803 13.6621 11.2074 13.8711 11.392C14.08 11.5766 14.2364 11.8132 14.3252 12.0775H14.3262L15.5361 15.7094L15.6152 15.9467L15.3779 16.0258L14.1143 16.4476L13.877 16.5267L12.6328 12.7943L9.50098 12.1683L8.31348 14.1478C8.02836 14.6222 7.50926 14.9164 6.95605 14.9164H3.75V13.0834H6.81348L9.94922 7.85681L9.17285 7.70154L8.15332 9.74255L8.04199 9.96619L7.81836 9.85388L6.40234 9.14587L6.51367 8.92224L7.61914 6.7113C7.77445 6.40074 8.02793 6.15003 8.33984 5.99744ZM13.333 3.08337C14.2073 3.08337 14.9168 3.79208 14.917 4.66638C14.917 5.54083 14.2075 6.25037 13.333 6.25037C12.4587 6.25019 11.75 5.54072 11.75 4.66638C11.7502 3.79219 12.4588 3.08355 13.333 3.08337Z" fill="#8C8480" stroke="#8C8480" stroke-width="0.5"/>
</svg>
