<svg width="20" height="20" viewBox="0 0 20 20" fill="none" xmlns="http://www.w3.org/2000/svg">
<path d="M1.66667 13.3333C1.66667 10.9766 1.66667 9.79742 2.39917 9.06575C3.13083 8.33325 4.31 8.33325 6.66667 8.33325H13.3333C15.69 8.33325 16.8692 8.33325 17.6008 9.06575C18.3333 9.79742 18.3333 10.9766 18.3333 13.3333C18.3333 15.6899 18.3333 16.8691 17.6008 17.6008C16.8692 18.3333 15.69 18.3333 13.3333 18.3333H6.66667C4.31 18.3333 3.13083 18.3333 2.39917 17.6008C1.66667 16.8691 1.66667 15.6899 1.66667 13.3333Z" stroke="#8C8480" stroke-width="1.5"/>
<path d="M10 11.6666V15M5 8.33329V6.66663C5 5.34054 5.52678 4.06877 6.46447 3.13109C7.40215 2.19341 8.67392 1.66663 10 1.66663C11.3261 1.66663 12.5979 2.19341 13.5355 3.13109C14.4732 4.06877 15 5.34054 15 6.66663V8.33329" stroke="#8C8480" stroke-width="1.5" stroke-linecap="round"/>
</svg>
